<svg xmlns="http://www.w3.org/2000/svg" viewBox="0 0 96 96" width="90" height="90" fill="none" class="css-37ul6t"><path opacity="0.3" fill-rule="evenodd" clip-rule="evenodd" d="M12.001 68.043l36 23.957V8h-36v60.043z" fill="url(#security_svg__paint0)"></path><path opacity="0.3" fill-rule="evenodd" clip-rule="evenodd" d="M48.001 8v84l36-24V8h-36z" fill="#AEB4BC"></path><path d="M74 64.667L48 82 22 64.667V18h52v46.667z" fill="url(#security_svg__paint1)"></path><path d="M34 46l14-14 14 14-14 14-14-14z" fill="url(#security_svg__paint2)"></path><path opacity="0.3" d="M14 88l4 4 4-4-4-4-4 4z" fill="#AEB4BC"></path><path d="M88 21h3v-3h-3v3z" fill="#E6E8EA"></path><path opacity="0.3" d="M4 2.5L6.5 5 9 2.5 6.5 0 4 2.5z" fill="#AEB4BC"></path><defs><linearGradient id="security_svg__paint0" x1="48.001" y1="92" x2="48.001" y2="8" gradientUnits="userSpaceOnUse"><stop stop-color="#AEB4BC" stop-opacity="0.1"></stop><stop offset="0.701" stop-color="#AEB4BC"></stop></linearGradient><linearGradient id="security_svg__paint1" x1="48" y1="82" x2="48" y2="18" gradientUnits="userSpaceOnUse"><stop offset="0.333" stop-color="#F0B90B"></stop><stop offset="1" stop-color="#FBDA3C"></stop></linearGradient><linearGradient id="security_svg__paint2" x1="48" y1="32" x2="48" y2="60" gradientUnits="userSpaceOnUse"><stop stop-color="#929AA5"></stop><stop offset="1" stop-color="#76808F"></stop></linearGradient></defs></svg>