<svg xmlns="http://www.w3.org/2000/svg" viewBox="0 0 96 96" width="90" height="90" fill="none" class="css-37ul6t"><path opacity="0.3" d="M16 33l4 4 4-4-4-4-4 4z" fill="#AEB4BC"></path><path d="M28 88h3v-3h-3v3z" fill="#E6E8EA"></path><path opacity="0.3" d="M63.5 56l1.5-1.5-1.5-1.5-1.5 1.5 1.5 1.5zM8 16h60v4H8zM8 46h60v4H8zM8 76h80v4H8z" fill="#AEB4BC"></path><path d="M38 46h20v19H38V46z" fill="url(#profits_svg__paint0_linear_26712_55038)"></path><path fill="url(#profits_svg__paint1_linear_26712_55038)" d="M38 65h20v15H38z"></path><path fill="url(#profits_svg__paint2_linear_26712_55038)" d="M8 70h20v10H8z"></path><path transform="matrix(1 0 0 -1 8 70)" fill="url(#profits_svg__paint3_linear_26712_55038)" d="M0 0h20v10H0z"></path><path d="M68 16h20v27H68V16z" fill="url(#profits_svg__paint4_linear_26712_55038)"></path><path fill="url(#profits_svg__paint5_linear_26712_55038)" d="M68 43h20v37H68z"></path><defs><linearGradient id="profits_svg__paint0_linear_26712_55038" x1="48" y1="65" x2="48" y2="46" gradientUnits="userSpaceOnUse"><stop stop-color="#F0B90B"></stop><stop offset="1" stop-color="#F8D33A"></stop></linearGradient><linearGradient id="profits_svg__paint1_linear_26712_55038" x1="48" y1="65" x2="48" y2="80" gradientUnits="userSpaceOnUse"><stop stop-color="#929AA5"></stop><stop offset="1" stop-color="#76808F"></stop></linearGradient><linearGradient id="profits_svg__paint2_linear_26712_55038" x1="18" y1="70" x2="18" y2="80" gradientUnits="userSpaceOnUse"><stop stop-color="#929AA5"></stop><stop offset="1" stop-color="#76808F"></stop></linearGradient><linearGradient id="profits_svg__paint3_linear_26712_55038" x1="10" y1="0" x2="10" y2="10" gradientUnits="userSpaceOnUse"><stop stop-color="#F0B90B"></stop><stop offset="1" stop-color="#F8D33A"></stop></linearGradient><linearGradient id="profits_svg__paint4_linear_26712_55038" x1="78" y1="43" x2="78" y2="16" gradientUnits="userSpaceOnUse"><stop stop-color="#F0B90B"></stop><stop offset="1" stop-color="#F8D33A"></stop></linearGradient><linearGradient id="profits_svg__paint5_linear_26712_55038" x1="78" y1="43" x2="78" y2="80" gradientUnits="userSpaceOnUse"><stop stop-color="#929AA5"></stop><stop offset="1" stop-color="#76808F"></stop></linearGradient></defs></svg>